<?xml version="1.0" encoding="utf-8"?>
<!-- Generator: Adobe Illustrator 27.0.0, SVG Export Plug-In . SVG Version: 6.00 Build 0)  -->
<svg version="1.1" id="Layer_1" xmlns="http://www.w3.org/2000/svg" xmlns:xlink="http://www.w3.org/1999/xlink" x="0px" y="0px"
	 viewBox="0 0 220 46.9" style="enable-background:new 0 0 220 46.9;" xml:space="preserve">
<style type="text/css">
	.st0{fill:none;stroke:#99B4FF;stroke-miterlimit:10;}
	.st1{fill:#FFFFFF;}
	.st2{fill:#025156;}
	.st3{fill:#EEF2F3;}
	.st4{fill:none;stroke:#727272;stroke-width:1.8075;stroke-miterlimit:15.625;}
	.st5{fill:none;stroke:#727272;stroke-width:1.8075;stroke-linecap:round;stroke-miterlimit:15.625;}
	.st6{fill:#DDDDDD;}
	.st7{fill-rule:evenodd;clip-rule:evenodd;fill:#FFFFFF;}
</style>
<path d="M800.7-1124.3c0.4,1.9,0.8,3.6,1.2,5.4c1.5,7.4,3,14.8,4.6,22.2c0.3,1.6,0.6,3.2,1,4.7c0.2,1-0.1,1.6-1.1,2
	c-5.9,2.6-12,4.4-18.2,6c-7.7,1.9-15.5,3.1-23.3,3.6c-8.1,0.6-16.2,0.5-24.2-0.9c-5.6-1-11-2.6-15.9-5.8c-5.5-3.5-9.2-8.3-10-15
	c-0.8-6.6,1.3-12.2,6.3-16.7c3.7-3.4,8.1-5.5,12.4-7.9c4.8-2.8,9.6-5.5,13.7-9.4c2.9-2.7,5.2-5.9,6-9.8c0.7-3.2,0.5-6.2-1-9.2
	c-2.3-4.4-5.9-6.5-10.8-6.8c-5.9-0.3-11,1.8-15.5,5.5c-4.4,3.6-7.4,8.2-9.9,13.3c-3.7,7.4-6,15.3-7.4,23.5c-0.9,5.6-1.5,11.3-2.1,17
	c-0.1,0.9-0.4,1.4-1.5,1.4c-11-0.1-22-0.2-33-0.3c-3.5,0-7-0.1-10.5-0.2c-1,0-1.3-0.4-1-1.3c1.9-6.9,3.6-13.8,5.7-20.6
	c2-6.3,4.6-12.5,7.1-18.7c1.4-3.4,3.1-6.6,4.8-9.8c2.3-4.3,4.7-8.6,7.3-12.7c5.3-8.2,11.5-15.7,19-22.1c6.1-5.3,12.8-9.6,20.2-12.8
	c5.3-2.3,10.7-3.9,16.3-4.9c4.8-0.9,9.7-1.3,14.5-1.1c8.5,0.4,16.5,2.3,23.8,6.8c2.6,1.6,4.9,3.5,7,5.6c7.5,7.4,10.5,16.6,11.6,26.7
	c0.7,5.9,0.2,11.6-1.8,17.2c-2.2,6.4-5.5,12.1-10,17.2c-3.7,4.3-8,7.9-12.8,10.9c-6.6,4.2-13.7,7.3-21.3,9.2c-0.2,0-0.4,0-0.5,0.2
	c-0.4,0.4-0.7,0.8-1.1,1.2c0.5,0.2,0.9,0.7,1.4,0.7c3.2-0.2,6.5-0.4,9.7-0.9c11.6-1.9,22.5-5.8,33.2-10.6
	C796.5-1122.4,798.5-1123.4,800.7-1124.3z"/>
<text transform="matrix(1 0 0 1 833.9127 -1099.6007)" style="font-family:'ArialRoundedMTBold'; font-size:120.4781px;">Revibee</text>
<g id="Ywg2Zp_00000087376725919945790000000013640680407438019997_">
	
		<image style="overflow:visible;" width="3416" height="1338" id="Ywg2Zp" xlink:href="C3A5431B07483C25.jpg"  transform="matrix(0.5 0 0 0.5 503.6691 -904.5759)">
	</image>
</g>
<line class="st0" x1="-740.7" y1="-177.5" x2="1064.3" y2="-177.5"/>
<image style="overflow:visible;" width="2844" height="1544" xlink:href="../../../Desktop/Screen Shot 2025-12-20 at 01.28.31.jpg"  transform="matrix(0.5 0 0 0.5 2837.0012 302.5589)">
</image>
<g>
	<defs>
		<rect id="SVGID_1_" x="588.5" y="209.1" width="1707.6" height="683.7"/>
	</defs>
	<clipPath id="SVGID_00000087394120735456852480000004771638632421557158_">
		<use xlink:href="#SVGID_1_"  style="overflow:visible;"/>
	</clipPath>
	<g style="clip-path:url(#SVGID_00000087394120735456852480000004771638632421557158_);">
		
			<image style="overflow:visible;" width="1408" height="768" xlink:href="../../Gemini_Generated_Image_cn85gvcn85gvcn85.png"  transform="matrix(1.2202 0 0 1.2202 579.7144 87.1934)">
		</image>
	</g>
</g>
<rect x="588.5" y="32.7" class="st1" width="1707.6" height="113.8"/>
<rect x="588.3" y="-33.2" class="st2" width="1707.6" height="66.6"/>
<g>
	<g>
		<g>
			<path class="st2" d="M822.1,93.7c0.1,0.7,0.3,1.3,0.4,1.9c0.6,2.7,1.1,5.3,1.7,8c0.1,0.6,0.2,1.1,0.3,1.7c0.1,0.4,0,0.6-0.4,0.7
				c-2.1,1-4.3,1.6-6.6,2.2c-2.8,0.7-5.6,1.1-8.4,1.3c-2.9,0.2-5.8,0.2-8.7-0.3c-2-0.4-4-1-5.7-2.1c-2-1.3-3.3-3-3.6-5.4
				c-0.3-2.4,0.5-4.4,2.3-6c1.3-1.2,2.9-2,4.5-2.9c1.7-1,3.5-2,5-3.4c1-1,1.9-2.1,2.2-3.6c0.2-1.1,0.2-2.3-0.4-3.3
				c-0.8-1.6-2.2-2.4-3.9-2.4c-2.1-0.1-4,0.7-5.6,2c-1.6,1.3-2.7,3-3.6,4.8c-1.3,2.7-2.2,5.5-2.7,8.5c-0.3,2-0.5,4.1-0.8,6.1
				c0,0.3-0.1,0.5-0.5,0.5c-4-0.1-8-0.1-11.9-0.1c-1.3,0-2.5-0.1-3.8-0.1c-0.4,0-0.5-0.1-0.4-0.5c0.7-2.5,1.3-5,2.1-7.4
				c0.7-2.3,1.6-4.5,2.6-6.8c0.5-1.2,1.1-2.4,1.7-3.5c0.8-1.6,1.7-3.1,2.7-4.6c1.9-3,4.2-5.7,6.9-8c2.2-1.9,4.6-3.5,7.3-4.6
				c1.9-0.8,3.9-1.4,5.9-1.8c1.7-0.3,3.5-0.5,5.3-0.4c3.1,0.1,6,0.8,8.6,2.5c0.9,0.6,1.8,1.2,2.5,2c2.7,2.7,3.8,6,4.2,9.6
				c0.2,2.1,0.1,4.2-0.6,6.2c-0.8,2.3-2,4.4-3.6,6.2c-1.4,1.5-2.9,2.9-4.6,4c-2.4,1.5-4.9,2.6-7.7,3.3c-0.1,0-0.2,0-0.2,0.1
				c-0.1,0.1-0.3,0.3-0.4,0.4c0.2,0.1,0.3,0.3,0.5,0.3c1.2-0.1,2.4-0.1,3.5-0.3c4.2-0.7,8.1-2.1,12-3.8
				C820.6,94.4,821.3,94,822.1,93.7z"/>
		</g>
		<g>
			<path class="st2" d="M846,89.3h-2.2v10c0,1.3-0.3,2.3-0.9,2.9c-0.6,0.6-1.3,0.9-2.3,0.9c-1,0-1.8-0.3-2.3-1
				c-0.6-0.7-0.8-1.6-0.8-2.9v-24c0-1.4,0.3-2.3,0.9-3c0.6-0.6,1.6-0.9,3-0.9h10.3c1.4,0,2.6,0.1,3.6,0.2c1,0.1,1.9,0.4,2.7,0.7
				c1,0.4,1.8,1,2.6,1.8c0.8,0.8,1.3,1.7,1.7,2.7c0.4,1,0.6,2.1,0.6,3.2c0,2.3-0.7,4.2-2,5.6c-1.3,1.4-3.3,2.4-6,3
				c1.1,0.6,2.2,1.5,3.2,2.6c1,1.2,1.9,2.4,2.7,3.7c0.8,1.3,1.4,2.5,1.9,3.6c0.4,1.1,0.7,1.8,0.7,2.2c0,0.4-0.1,0.8-0.4,1.2
				c-0.3,0.4-0.6,0.7-1.1,1c-0.5,0.2-1,0.4-1.6,0.4c-0.7,0-1.3-0.2-1.8-0.5c-0.5-0.3-0.9-0.8-1.2-1.3c-0.3-0.5-0.8-1.3-1.4-2.3
				l-2.5-4.2c-0.9-1.5-1.7-2.7-2.4-3.5c-0.7-0.8-1.4-1.4-2.2-1.7C848.1,89.4,847.1,89.3,846,89.3z M849.6,76.2h-5.8v8.6h5.7
				c1.5,0,2.8-0.1,3.8-0.4c1-0.3,1.8-0.7,2.4-1.3c0.5-0.6,0.8-1.5,0.8-2.6c0-0.9-0.2-1.6-0.7-2.3c-0.4-0.7-1-1.2-1.8-1.5
				C853.2,76.4,851.8,76.2,849.6,76.2z"/>
			<path class="st2" d="M881.4,92.8H870c0,1.3,0.3,2.5,0.8,3.5c0.5,1,1.2,1.8,2.1,2.3c0.9,0.5,1.8,0.8,2.8,0.8
				c0.7,0,1.3-0.1,1.9-0.2c0.6-0.2,1.1-0.4,1.7-0.8c0.5-0.3,1-0.7,1.5-1.1c0.5-0.4,1-0.9,1.8-1.6c0.3-0.3,0.7-0.4,1.3-0.4
				c0.6,0,1.1,0.2,1.4,0.5c0.4,0.3,0.6,0.8,0.6,1.4c0,0.5-0.2,1.1-0.6,1.8c-0.4,0.7-1,1.4-1.9,2c-0.8,0.6-1.9,1.2-3.1,1.6
				c-1.3,0.4-2.7,0.6-4.3,0.6c-3.7,0-6.6-1.1-8.7-3.2c-2.1-2.1-3.1-5-3.1-8.7c0-1.7,0.3-3.3,0.8-4.8c0.5-1.5,1.3-2.7,2.2-3.8
				c1-1,2.2-1.9,3.6-2.4c1.4-0.6,3-0.8,4.8-0.8c2.3,0,4.2,0.5,5.8,1.4c1.6,1,2.8,2.2,3.6,3.7c0.8,1.5,1.2,3.1,1.2,4.6
				c0,1.5-0.4,2.4-1.3,2.8C884.1,92.6,882.9,92.8,881.4,92.8z M870,89.5h10.5c-0.1-2-0.7-3.5-1.6-4.5c-0.9-1-2.2-1.5-3.7-1.5
				c-1.4,0-2.6,0.5-3.6,1.5C870.8,86.1,870.2,87.5,870,89.5z"/>
			<path class="st2" d="M891.9,83.2l4.7,13.2l5.1-13.8c0.4-1.1,0.8-1.9,1.2-2.4c0.4-0.5,1-0.7,1.7-0.7c0.7,0,1.4,0.2,1.9,0.7
				c0.5,0.5,0.8,1.1,0.8,1.7c0,0.3,0,0.6-0.1,0.9c-0.1,0.3-0.2,0.7-0.3,1c-0.1,0.3-0.3,0.6-0.4,1l-5.6,13.8
				c-0.2,0.4-0.4,0.9-0.6,1.5c-0.2,0.6-0.5,1.1-0.8,1.6c-0.3,0.4-0.7,0.8-1.1,1c-0.4,0.2-1,0.4-1.6,0.4c-0.8,0-1.5-0.2-2-0.6
				c-0.5-0.4-0.9-0.8-1.1-1.2c-0.2-0.4-0.6-1.3-1.2-2.6L886.8,85c-0.1-0.3-0.3-0.7-0.4-1c-0.1-0.3-0.2-0.7-0.3-1
				c-0.1-0.4-0.1-0.7-0.1-0.9c0-0.4,0.1-0.8,0.4-1.2c0.2-0.4,0.6-0.7,1-1c0.4-0.2,0.9-0.4,1.4-0.4c1,0,1.6,0.3,2,0.8
				C891.1,80.9,891.5,81.9,891.9,83.2z"/>
			<path class="st2" d="M912.2,76.9c-0.8,0-1.5-0.2-2.1-0.7c-0.6-0.5-0.9-1.2-0.9-2.1c0-0.8,0.3-1.5,0.9-2c0.6-0.5,1.3-0.8,2.1-0.8
				c0.8,0,1.4,0.2,2,0.7c0.6,0.5,0.9,1.2,0.9,2.1c0,0.9-0.3,1.6-0.9,2.1C913.6,76.6,912.9,76.9,912.2,76.9z M915,82.9v16.8
				c0,1.2-0.3,2-0.8,2.6c-0.6,0.6-1.3,0.9-2.1,0.9c-0.9,0-1.5-0.3-2.1-0.9c-0.5-0.6-0.8-1.5-0.8-2.6V83c0-1.1,0.3-2,0.8-2.6
				c0.5-0.6,1.2-0.9,2.1-0.9c0.9,0,1.6,0.3,2.1,0.9C914.8,81,915,81.8,915,82.9z"/>
			<path class="st2" d="M924.2,74.2v8.9c1.1-1.1,2.2-2,3.3-2.6c1.1-0.6,2.5-0.9,4.2-0.9c1.9,0,3.6,0.5,5.1,1.4
				c1.5,0.9,2.6,2.2,3.4,4c0.8,1.7,1.2,3.8,1.2,6.2c0,1.8-0.2,3.4-0.7,4.8c-0.4,1.5-1.1,2.7-1.9,3.8c-0.9,1.1-1.9,1.9-3.1,2.5
				c-1.2,0.6-2.5,0.9-4,0.9c-0.9,0-1.7-0.1-2.5-0.3c-0.8-0.2-1.5-0.5-2-0.8c-0.6-0.3-1-0.7-1.4-1.1c-0.4-0.4-0.9-0.9-1.5-1.7v0.6
				c0,1.1-0.3,1.9-0.8,2.5c-0.5,0.6-1.2,0.8-2,0.8c-0.8,0-1.5-0.3-2-0.8c-0.5-0.6-0.7-1.4-0.7-2.5V74.5c0-1.2,0.2-2.1,0.7-2.7
				c0.5-0.6,1.1-0.9,2-0.9c0.9,0,1.6,0.3,2.1,0.9S924.2,73.2,924.2,74.2z M924.5,91.5c0,2.3,0.5,4.1,1.6,5.3
				c1.1,1.2,2.4,1.9,4.2,1.9c1.5,0,2.7-0.6,3.8-1.9c1.1-1.3,1.6-3.1,1.6-5.5c0-1.5-0.2-2.9-0.7-4c-0.4-1.1-1.1-2-1.9-2.6
				c-0.8-0.6-1.8-0.9-2.8-0.9c-1.1,0-2.1,0.3-3,0.9s-1.5,1.5-2,2.6C924.7,88.6,924.5,89.9,924.5,91.5z"/>
			<path class="st2" d="M960.1,92.8h-11.4c0,1.3,0.3,2.5,0.8,3.5c0.5,1,1.2,1.8,2.1,2.3s1.8,0.8,2.8,0.8c0.7,0,1.3-0.1,1.9-0.2
				c0.6-0.2,1.1-0.4,1.7-0.8c0.5-0.3,1-0.7,1.5-1.1c0.5-0.4,1-0.9,1.8-1.6c0.3-0.3,0.7-0.4,1.3-0.4c0.6,0,1.1,0.2,1.4,0.5
				c0.4,0.3,0.6,0.8,0.6,1.4c0,0.5-0.2,1.1-0.6,1.8c-0.4,0.7-1,1.4-1.9,2c-0.8,0.6-1.9,1.2-3.1,1.6c-1.3,0.4-2.7,0.6-4.3,0.6
				c-3.7,0-6.6-1.1-8.7-3.2c-2.1-2.1-3.1-5-3.1-8.7c0-1.7,0.3-3.3,0.8-4.8c0.5-1.5,1.3-2.7,2.2-3.8c1-1,2.2-1.9,3.6-2.4
				c1.4-0.6,3-0.8,4.8-0.8c2.3,0,4.2,0.5,5.8,1.4c1.6,1,2.8,2.2,3.6,3.7c0.8,1.5,1.2,3.1,1.2,4.6c0,1.5-0.4,2.4-1.3,2.8
				C962.8,92.6,961.6,92.8,960.1,92.8z M948.8,89.5h10.5c-0.1-2-0.7-3.5-1.6-4.5c-0.9-1-2.2-1.5-3.7-1.5c-1.4,0-2.6,0.5-3.6,1.5
				C949.5,86.1,949,87.5,948.8,89.5z"/>
			<path class="st2" d="M983.8,92.8h-11.4c0,1.3,0.3,2.5,0.8,3.5c0.5,1,1.2,1.8,2.1,2.3s1.8,0.8,2.8,0.8c0.7,0,1.3-0.1,1.9-0.2
				c0.6-0.2,1.1-0.4,1.7-0.8c0.5-0.3,1-0.7,1.5-1.1c0.5-0.4,1-0.9,1.8-1.6c0.3-0.3,0.7-0.4,1.3-0.4c0.6,0,1.1,0.2,1.4,0.5
				c0.4,0.3,0.6,0.8,0.6,1.4c0,0.5-0.2,1.1-0.6,1.8c-0.4,0.7-1,1.4-1.9,2c-0.8,0.6-1.9,1.2-3.1,1.6c-1.3,0.4-2.7,0.6-4.3,0.6
				c-3.7,0-6.6-1.1-8.7-3.2c-2.1-2.1-3.1-5-3.1-8.7c0-1.7,0.3-3.3,0.8-4.8c0.5-1.5,1.3-2.7,2.2-3.8c1-1,2.2-1.9,3.6-2.4
				c1.4-0.6,3-0.8,4.8-0.8c2.3,0,4.2,0.5,5.8,1.4c1.6,1,2.8,2.2,3.6,3.7c0.8,1.5,1.2,3.1,1.2,4.6c0,1.5-0.4,2.4-1.3,2.8
				C986.5,92.6,985.3,92.8,983.8,92.8z M972.5,89.5H983c-0.1-2-0.7-3.5-1.6-4.5c-0.9-1-2.2-1.5-3.7-1.5c-1.4,0-2.6,0.5-3.6,1.5
				C973.2,86.1,972.7,87.5,972.5,89.5z"/>
		</g>
	</g>
</g>
<g>
	<g>
		<g>
			<path class="st2" d="M51.5,30.1c0.1,0.7,0.3,1.3,0.4,1.9c0.6,2.7,1.1,5.3,1.7,8c0.1,0.6,0.2,1.1,0.3,1.7c0.1,0.4,0,0.6-0.4,0.7
				c-2.1,1-4.3,1.6-6.6,2.2c-2.8,0.7-5.6,1.1-8.4,1.3c-2.9,0.2-5.8,0.2-8.7-0.3c-2-0.4-4-1-5.7-2.1c-2-1.3-3.3-3-3.6-5.4
				c-0.3-2.4,0.5-4.4,2.3-6c1.3-1.2,2.9-2,4.5-2.9c1.7-1,3.5-2,5-3.4c1-1,1.9-2.1,2.2-3.6c0.2-1.1,0.2-2.3-0.4-3.3
				c-0.8-1.6-2.2-2.4-3.9-2.4c-2.1-0.1-4,0.7-5.6,2c-1.6,1.3-2.7,3-3.6,4.8c-1.3,2.7-2.2,5.5-2.7,8.5c-0.3,2-0.5,4.1-0.8,6.1
				c0,0.3-0.1,0.5-0.5,0.5c-4-0.1-8-0.1-11.9-0.1c-1.3,0-2.5-0.1-3.8-0.1c-0.4,0-0.5-0.1-0.4-0.5c0.7-2.5,1.3-5,2.1-7.4
				c0.7-2.3,1.6-4.5,2.6-6.8c0.5-1.2,1.1-2.4,1.7-3.5C8,18.6,8.8,17,9.8,15.5c1.9-3,4.2-5.7,6.9-8c2.2-1.9,4.6-3.5,7.3-4.6
				c1.9-0.8,3.9-1.4,5.9-1.8c1.7-0.3,3.5-0.5,5.3-0.4c3.1,0.1,6,0.8,8.6,2.5c0.9,0.6,1.8,1.2,2.5,2c2.7,2.7,3.8,6,4.2,9.6
				c0.2,2.1,0.1,4.2-0.6,6.2c-0.8,2.3-2,4.4-3.6,6.2c-1.4,1.5-2.9,2.9-4.6,4c-2.4,1.5-4.9,2.6-7.7,3.3c-0.1,0-0.2,0-0.2,0.1
				c-0.1,0.1-0.3,0.3-0.4,0.4c0.2,0.1,0.3,0.3,0.5,0.3c1.2-0.1,2.4-0.1,3.5-0.3c4.2-0.7,8.1-2.1,12-3.8C50,30.8,50.7,30.5,51.5,30.1
				z"/>
		</g>
		<g>
			<path class="st2" d="M75.4,25.8h-2.2v10c0,1.3-0.3,2.3-0.9,2.9c-0.6,0.6-1.3,0.9-2.3,0.9c-1,0-1.8-0.3-2.3-1
				c-0.6-0.7-0.8-1.6-0.8-2.9v-24c0-1.4,0.3-2.3,0.9-3c0.6-0.6,1.6-0.9,3-0.9H81c1.4,0,2.6,0.1,3.6,0.2c1,0.1,1.9,0.4,2.7,0.7
				c1,0.4,1.8,1,2.6,1.8c0.8,0.8,1.3,1.7,1.7,2.7c0.4,1,0.6,2.1,0.6,3.2c0,2.3-0.7,4.2-2,5.6c-1.3,1.4-3.3,2.4-6,3
				c1.1,0.6,2.2,1.5,3.2,2.6c1,1.2,1.9,2.4,2.7,3.7c0.8,1.3,1.4,2.5,1.9,3.6c0.4,1.1,0.7,1.8,0.7,2.2c0,0.4-0.1,0.8-0.4,1.2
				c-0.3,0.4-0.6,0.7-1.1,1c-0.5,0.2-1,0.4-1.6,0.4c-0.7,0-1.3-0.2-1.8-0.5c-0.5-0.3-0.9-0.8-1.2-1.3c-0.3-0.5-0.8-1.3-1.4-2.3
				l-2.5-4.2c-0.9-1.5-1.7-2.7-2.4-3.5c-0.7-0.8-1.4-1.4-2.2-1.7C77.5,25.9,76.5,25.8,75.4,25.8z M79,12.7h-5.8v8.6h5.7
				c1.5,0,2.8-0.1,3.8-0.4c1-0.3,1.8-0.7,2.4-1.3c0.5-0.6,0.8-1.5,0.8-2.6c0-0.9-0.2-1.6-0.7-2.3c-0.4-0.7-1-1.2-1.8-1.5
				C82.6,12.8,81.2,12.7,79,12.7z"/>
			<path class="st2" d="M110.8,29.2H99.4c0,1.3,0.3,2.5,0.8,3.5c0.5,1,1.2,1.8,2.1,2.3c0.9,0.5,1.8,0.8,2.8,0.8
				c0.7,0,1.3-0.1,1.9-0.2c0.6-0.2,1.1-0.4,1.7-0.8c0.5-0.3,1-0.7,1.5-1.1c0.5-0.4,1-0.9,1.8-1.6c0.3-0.3,0.7-0.4,1.3-0.4
				c0.6,0,1.1,0.2,1.4,0.5c0.4,0.3,0.6,0.8,0.6,1.4c0,0.5-0.2,1.1-0.6,1.8c-0.4,0.7-1,1.4-1.9,2c-0.8,0.6-1.9,1.2-3.1,1.6
				c-1.3,0.4-2.7,0.6-4.3,0.6c-3.7,0-6.6-1.1-8.7-3.2c-2.1-2.1-3.1-5-3.1-8.7c0-1.7,0.3-3.3,0.8-4.8c0.5-1.5,1.3-2.7,2.2-3.8
				c1-1,2.2-1.9,3.6-2.4c1.4-0.6,3-0.8,4.8-0.8c2.3,0,4.2,0.5,5.8,1.4c1.6,1,2.8,2.2,3.6,3.7c0.8,1.5,1.2,3.1,1.2,4.6
				c0,1.5-0.4,2.4-1.3,2.8C113.5,29,112.3,29.2,110.8,29.2z M99.4,25.9H110c-0.1-2-0.7-3.5-1.6-4.5c-0.9-1-2.2-1.5-3.7-1.5
				c-1.4,0-2.6,0.5-3.6,1.5C100.2,22.5,99.6,24,99.4,25.9z"/>
			<path class="st2" d="M121.3,19.6l4.7,13.2l5.1-13.8c0.4-1.1,0.8-1.9,1.2-2.4c0.4-0.5,1-0.7,1.7-0.7c0.7,0,1.4,0.2,1.9,0.7
				c0.5,0.5,0.8,1.1,0.8,1.7c0,0.3,0,0.6-0.1,0.9c-0.1,0.3-0.2,0.7-0.3,1c-0.1,0.3-0.3,0.6-0.4,1l-5.6,13.8
				c-0.2,0.4-0.4,0.9-0.6,1.5c-0.2,0.6-0.5,1.1-0.8,1.6c-0.3,0.4-0.7,0.8-1.1,1c-0.4,0.2-1,0.4-1.6,0.4c-0.8,0-1.5-0.2-2-0.6
				c-0.5-0.4-0.9-0.8-1.1-1.2c-0.2-0.4-0.6-1.3-1.2-2.6l-5.5-13.7c-0.1-0.3-0.3-0.7-0.4-1c-0.1-0.3-0.2-0.7-0.3-1
				c-0.1-0.4-0.1-0.7-0.1-0.9c0-0.4,0.1-0.8,0.4-1.2c0.2-0.4,0.6-0.7,1-1c0.4-0.2,0.9-0.4,1.4-0.4c1,0,1.6,0.3,2,0.8
				C120.5,17.4,120.9,18.3,121.3,19.6z"/>
			<path class="st2" d="M141.6,13.3c-0.8,0-1.5-0.2-2.1-0.7c-0.6-0.5-0.9-1.2-0.9-2.1c0-0.8,0.3-1.5,0.9-2c0.6-0.5,1.3-0.8,2.1-0.8
				c0.8,0,1.4,0.2,2,0.7c0.6,0.5,0.9,1.2,0.9,2.1c0,0.9-0.3,1.6-0.9,2.1C143,13.1,142.3,13.3,141.6,13.3z M144.4,19.3v16.8
				c0,1.2-0.3,2-0.8,2.6c-0.6,0.6-1.3,0.9-2.1,0.9c-0.9,0-1.5-0.3-2.1-0.9c-0.5-0.6-0.8-1.5-0.8-2.6V19.5c0-1.1,0.3-2,0.8-2.6
				c0.5-0.6,1.2-0.9,2.1-0.9c0.9,0,1.6,0.3,2.1,0.9C144.2,17.5,144.4,18.3,144.4,19.3z"/>
			<path class="st2" d="M153.6,10.7v8.9c1.1-1.1,2.2-2,3.3-2.6c1.1-0.6,2.5-0.9,4.2-0.9c1.9,0,3.6,0.5,5.1,1.4
				c1.5,0.9,2.6,2.2,3.4,4c0.8,1.7,1.2,3.8,1.2,6.2c0,1.8-0.2,3.4-0.7,4.8c-0.4,1.5-1.1,2.7-1.9,3.8c-0.9,1.1-1.9,1.9-3.1,2.5
				c-1.2,0.6-2.5,0.9-4,0.9c-0.9,0-1.7-0.1-2.5-0.3c-0.8-0.2-1.5-0.5-2-0.8c-0.6-0.3-1-0.7-1.4-1.1c-0.4-0.4-0.9-0.9-1.5-1.7v0.6
				c0,1.1-0.3,1.9-0.8,2.5c-0.5,0.6-1.2,0.8-2,0.8c-0.8,0-1.5-0.3-2-0.8c-0.5-0.6-0.7-1.4-0.7-2.5V11c0-1.2,0.2-2.1,0.7-2.7
				c0.5-0.6,1.1-0.9,2-0.9c0.9,0,1.6,0.3,2.1,0.9C153.4,8.8,153.6,9.6,153.6,10.7z M153.9,27.9c0,2.3,0.5,4.1,1.6,5.3
				c1.1,1.2,2.4,1.9,4.2,1.9c1.5,0,2.7-0.6,3.8-1.9c1.1-1.3,1.6-3.1,1.6-5.5c0-1.5-0.2-2.9-0.7-4c-0.4-1.1-1.1-2-1.9-2.6
				c-0.8-0.6-1.8-0.9-2.8-0.9c-1.1,0-2.1,0.3-3,0.9c-0.9,0.6-1.5,1.5-2,2.6C154.1,25,153.9,26.4,153.9,27.9z"/>
			<path class="st2" d="M189.5,29.2h-11.4c0,1.3,0.3,2.5,0.8,3.5c0.5,1,1.2,1.8,2.1,2.3c0.9,0.5,1.8,0.8,2.8,0.8
				c0.7,0,1.3-0.1,1.9-0.2c0.6-0.2,1.1-0.4,1.7-0.8c0.5-0.3,1-0.7,1.5-1.1c0.5-0.4,1-0.9,1.8-1.6c0.3-0.3,0.7-0.4,1.3-0.4
				c0.6,0,1.1,0.2,1.4,0.5c0.4,0.3,0.6,0.8,0.6,1.4c0,0.5-0.2,1.1-0.6,1.8c-0.4,0.7-1,1.4-1.9,2c-0.8,0.6-1.9,1.2-3.1,1.6
				c-1.3,0.4-2.7,0.6-4.3,0.6c-3.7,0-6.6-1.1-8.7-3.2c-2.1-2.1-3.1-5-3.1-8.7c0-1.7,0.3-3.3,0.8-4.8c0.5-1.5,1.3-2.7,2.2-3.8
				c1-1,2.2-1.9,3.6-2.4c1.4-0.6,3-0.8,4.8-0.8c2.3,0,4.2,0.5,5.8,1.4c1.6,1,2.8,2.2,3.6,3.7c0.8,1.5,1.2,3.1,1.2,4.6
				c0,1.5-0.4,2.4-1.3,2.8C192.2,29,191,29.2,189.5,29.2z M178.2,25.9h10.5c-0.1-2-0.7-3.5-1.6-4.5c-0.9-1-2.2-1.5-3.7-1.5
				c-1.4,0-2.6,0.5-3.6,1.5C178.9,22.5,178.4,24,178.2,25.9z"/>
			<path class="st2" d="M213.2,29.2h-11.4c0,1.3,0.3,2.5,0.8,3.5c0.5,1,1.2,1.8,2.1,2.3s1.8,0.8,2.8,0.8c0.7,0,1.3-0.1,1.9-0.2
				c0.6-0.2,1.1-0.4,1.7-0.8c0.5-0.3,1-0.7,1.5-1.1c0.5-0.4,1-0.9,1.8-1.6c0.3-0.3,0.7-0.4,1.3-0.4c0.6,0,1.1,0.2,1.4,0.5
				c0.4,0.3,0.6,0.8,0.6,1.4c0,0.5-0.2,1.1-0.6,1.8c-0.4,0.7-1,1.4-1.9,2c-0.8,0.6-1.9,1.2-3.1,1.6c-1.3,0.4-2.7,0.6-4.3,0.6
				c-3.7,0-6.6-1.1-8.7-3.2c-2.1-2.1-3.1-5-3.1-8.7c0-1.7,0.3-3.3,0.8-4.8c0.5-1.5,1.3-2.7,2.2-3.8c1-1,2.2-1.9,3.6-2.4
				c1.4-0.6,3-0.8,4.8-0.8c2.3,0,4.2,0.5,5.8,1.4c1.6,1,2.8,2.2,3.6,3.7c0.8,1.5,1.2,3.1,1.2,4.6c0,1.5-0.4,2.4-1.3,2.8
				C215.9,29,214.7,29.2,213.2,29.2z M201.9,25.9h10.5c-0.1-2-0.7-3.5-1.6-4.5c-0.9-1-2.2-1.5-3.7-1.5c-1.4,0-2.6,0.5-3.6,1.5
				C202.6,22.5,202.1,24,201.9,25.9z"/>
		</g>
	</g>
</g>
<path class="st3" d="M1764.2,114h-689.5c-2.6,0-4.7-2.1-4.7-4.7V70.2c0-2.6,2.1-4.7,4.7-4.7h689.5c2.6,0,4.7,2.1,4.7,4.7v39.1
	C1768.9,111.9,1766.8,114,1764.2,114z"/>
<path class="st2" d="M2022.2,114h-139.1c-1.2,0-2.1-1-2.1-2.1V67.6c0-1.2,1-2.1,2.1-2.1h139.1c1.2,0,2.1,1,2.1,2.1v44.2
	C2024.3,113,2023.4,114,2022.2,114z"/>
<g>
	<path class="st4" d="M1733.6,79c-4.9,0-8.9,4-8.9,8.9c0,4.9,4,8.9,8.9,8.9c4.9,0,8.9-4,8.9-8.9l0,0C1742.5,83,1738.5,79,1733.6,79z
		"/>
	<line class="st5" x1="1740.2" y1="94.5" x2="1746.4" y2="100.7"/>
</g>
<rect x="588.5" y="146.5" class="st6" width="1707.6" height="89.3"/>
<g>
	<g>
		
			<text transform="matrix(1 0 0 1 771.3026 197.373)" style="fill:#131617; font-family:'ArialRoundedMTBold'; font-size:24.0861px;">Home</text>
		
			<text transform="matrix(1 0 0 1 935.3192 197.373)" style="fill:#131617; font-family:'ArialRoundedMTBold'; font-size:24.0861px;">Products</text>
		
			<text transform="matrix(1 0 0 1 1133.7981 197.373)" style="fill:#131617; font-family:'ArialRoundedMTBold'; font-size:24.0861px;">Featured</text>
		
			<text transform="matrix(1 0 0 1 1332.6028 197.373)" style="fill:#131617; font-family:'ArialRoundedMTBold'; font-size:24.0861px;">Track Order</text>
		
			<text transform="matrix(1 0 0 1 1571.2004 197.373)" style="fill:#131617; font-family:'ArialRoundedMTBold'; font-size:24.0861px;">Contact us</text>
	</g>
</g>
<path class="st7" d="M1390.7,767.5H736.2c-11.8,0-21.3-9.5-21.3-21.3V305.7c0-11.8,9.5-21.3,21.3-21.3h654.4
	c11.8,0,21.3,9.5,21.3,21.3v440.4C1412,757.9,1402.4,767.5,1390.7,767.5z"/>
<g>
	<text transform="matrix(1 0 0 1 770.7943 373.6064)"><tspan x="0" y="0" style="fill:#171A1B; font-family:'ArialRoundedMTBold'; font-size:59.326px;">Fashion</tspan><tspan x="0" y="71.2" style="fill:#171A1B; font-family:'ArialRoundedMTBold'; font-size:59.326px;">The Marketplace for</tspan><tspan x="0" y="142.4" style="fill:#171A1B; font-family:'ArialRoundedMTBold'; font-size:59.326px;">Great Finds</tspan></text>
</g>
<g>
	<text transform="matrix(1 0 0 1 771.3533 574.5752)"><tspan x="0" y="0" style="fill:#151818; font-family:'ArialCE'; font-size:25.5103px;">Authentic Burberry, Stone Island, And More, Top Tech,</tspan><tspan x="0" y="30.6" style="fill:#151818; font-family:'ArialCE'; font-size:25.5103px;">Bikes, And Cameras, All Checked And Ready</tspan></text>
</g>
<path class="st2" d="M1068.1,704.4h-289c-5.2,0-9.4-4.2-9.4-9.4v-39.8c0-5.2,4.2-9.4,9.4-9.4h289c5.2,0,9.4,4.2,9.4,9.4v39.8
	C1077.5,700.1,1073.3,704.4,1068.1,704.4z"/>
<text transform="matrix(1 0 0 1 860.3148 681.6582)" class="st1" style="font-family:'ArialRoundedMTBold'; font-size:25.5395px;">Shop Now</text>
<g>
	<text transform="matrix(1 0 0 1 1162.1086 6.6943)" class="st1" style="font-family:'ArialRoundedMTBold'; font-size:25.5185px;">Free Shipping For North 	America and Europe</text>
</g>
<g id="rlVCcM_00000169517421036936332940000002055314746101969830_">
	
		<image style="overflow:visible;" width="1431" height="659" id="rlVCcM_00000018227949701264381110000013867756009597215639_" xlink:href="C3A5431B07483C23.jpg"  transform="matrix(1.1991 0 0 1.1991 580.4012 893.2637)">
	</image>
</g>
<rect x="584.9" y="849.1" class="st2" width="1712.7" height="51.9"/>
<path class="st5" d="M2165.5,80h21.1l-2.9,10h-16.7 M2185.2,95.8H2168l-2.9-18.7h-4.3 M2169.4,101.6c0,0.8-0.6,1.4-1.4,1.4
	c-0.8,0-1.4-0.6-1.4-1.4s0.6-1.4,1.4-1.4C2168.8,100.1,2169.4,100.8,2169.4,101.6z M2185.2,101.6c0,0.8-0.6,1.4-1.4,1.4
	s-1.4-0.6-1.4-1.4s0.6-1.4,1.4-1.4S2185.2,100.8,2185.2,101.6z"/>
<circle class="st2" cx="2186.6" cy="80" r="5.4"/>
<g>
	<text transform="matrix(1 0 0 1 1907.8586 97.7012)" class="st1" style="font-family:'ArialRoundedMTBold'; font-size:22.6285px;">Sell Now</text>
</g>
<path class="st5" d="M2117.3,88.4v-5.7 M2117.3,94L2117.3,94 M2113.9,102.5l2.4,3.2c0.4,0.5,0.5,0.7,0.7,0.8c0.2,0.1,0.4,0.1,0.6,0
	c0.2-0.1,0.4-0.3,0.7-0.8l2.4-3.2c0.5-0.6,0.7-0.9,1-1.2c0.4-0.3,0.8-0.6,1.3-0.7c0.4-0.1,0.8-0.1,1.6-0.1c2.3,0,3.4,0,4.3-0.4
	c1.2-0.5,2.1-1.4,2.6-2.6c0.4-0.9,0.4-2,0.4-4.3V84c0-2.7,0-4.1-0.5-5.1c-0.5-0.9-1.2-1.7-2.1-2.1c-1-0.5-2.4-0.5-5.1-0.5h-13.6
	c-2.7,0-4.1,0-5.1,0.5c-0.9,0.5-1.7,1.2-2.1,2.1c-0.5,1-0.5,2.4-0.5,5.1v9.2c0,2.3,0,3.4,0.4,4.3c0.5,1.2,1.4,2.1,2.6,2.6
	c0.9,0.4,2,0.4,4.3,0.4c0.8,0,1.2,0,1.6,0.1c0.5,0.1,0.9,0.3,1.3,0.7C2113.2,101.5,2113.5,101.8,2113.9,102.5z"/>
</svg>
